<svg width="20" height="20" viewBox="0 0 20 20" fill="none" xmlns="http://www.w3.org/2000/svg">
<mask id="mask0_161_1551" style="mask-type:alpha" maskUnits="userSpaceOnUse" x="0" y="0" width="20" height="20">
<rect width="19.9747" height="20" fill="#D9D9D9"/>
</mask>
<g mask="url(#mask0_161_1551)">
<path d="M9.55201 12.0651L6.535 9.04427C6.49338 9.0026 6.46217 8.95747 6.44137 8.90885C6.42056 8.86024 6.41016 8.80816 6.41016 8.7526C6.41016 8.64149 6.4483 8.54427 6.52459 8.46094C6.60089 8.3776 6.70145 8.33594 6.8263 8.33594H13.1516C13.2765 8.33594 13.377 8.3776 13.4533 8.46094C13.5296 8.54427 13.5678 8.64149 13.5678 8.7526C13.5678 8.78038 13.5261 8.8776 13.4429 9.04427L10.4259 12.0651C10.3565 12.1345 10.2872 12.1832 10.2178 12.2109C10.1485 12.2387 10.0722 12.2526 9.98896 12.2526C9.90573 12.2526 9.82944 12.2387 9.76008 12.2109C9.69073 12.1832 9.62137 12.1345 9.55201 12.0651Z" fill="#0A6169"/>
</g>
</svg>
