<svg width="10" height="5" viewBox="0 0 10 5" fill="none" xmlns="http://www.w3.org/2000/svg">
<path d="M4.47422 4.47744L0.849219 0.852441C0.799219 0.802441 0.761719 0.748275 0.736719 0.689941C0.711719 0.631608 0.699219 0.569108 0.699219 0.502441C0.699219 0.369108 0.745052 0.252441 0.836719 0.152441C0.928385 0.0524414 1.04922 0.00244141 1.19922 0.00244141H8.79922C8.94922 0.00244141 9.07005 0.0524414 9.16172 0.152441C9.25339 0.252441 9.29922 0.369108 9.29922 0.502441C9.29922 0.535775 9.24922 0.652442 9.14922 0.852441L5.52422 4.47744C5.44089 4.56078 5.35755 4.61911 5.27422 4.65244C5.19089 4.68578 5.09922 4.70244 4.99922 4.70244C4.89922 4.70244 4.80755 4.68578 4.72422 4.65244C4.64089 4.61911 4.55755 4.56078 4.47422 4.47744Z" fill="white"/>
</svg>
