<svg width="25" height="24" viewBox="0 0 25 24" fill="none" xmlns="http://www.w3.org/2000/svg">
<g clip-path="url(#clip0_161_1534)">
<path d="M20.2125 3.75H5.23147C4.81778 3.75 4.48242 4.08579 4.48242 4.5V19.5C4.48242 19.9142 4.81778 20.25 5.23147 20.25H20.2125C20.6262 20.25 20.9616 19.9142 20.9616 19.5V4.5C20.9616 4.08579 20.6262 3.75 20.2125 3.75Z" stroke="#06555C" stroke-width="1.5" stroke-linecap="round" stroke-linejoin="round"/>
<path d="M17.2163 2.25V5.25" stroke="#06555C" stroke-width="1.5" stroke-linecap="round" stroke-linejoin="round"/>
<path d="M8.22803 2.25V5.25" stroke="#06555C" stroke-width="1.5" stroke-linecap="round" stroke-linejoin="round"/>
<path d="M4.48242 8.25H20.9616" stroke="#06555C" stroke-width="1.5" stroke-linecap="round" stroke-linejoin="round"/>
<path d="M12.722 13.3125C13.2391 13.3125 13.6583 12.8928 13.6583 12.375C13.6583 11.8572 13.2391 11.4375 12.722 11.4375C12.2048 11.4375 11.7856 11.8572 11.7856 12.375C11.7856 12.8928 12.2048 13.3125 12.722 13.3125Z" fill="#06555C"/>
<path d="M16.8421 13.3125C17.3592 13.3125 17.7784 12.8928 17.7784 12.375C17.7784 11.8572 17.3592 11.4375 16.8421 11.4375C16.325 11.4375 15.9058 11.8572 15.9058 12.375C15.9058 12.8928 16.325 13.3125 16.8421 13.3125Z" fill="#06555C"/>
<path d="M8.60233 17.0625C9.11944 17.0625 9.53865 16.6428 9.53865 16.125C9.53865 15.6072 9.11944 15.1875 8.60233 15.1875C8.08522 15.1875 7.66602 15.6072 7.66602 16.125C7.66602 16.6428 8.08522 17.0625 8.60233 17.0625Z" fill="#06555C"/>
<path d="M12.722 17.0625C13.2391 17.0625 13.6583 16.6428 13.6583 16.125C13.6583 15.6072 13.2391 15.1875 12.722 15.1875C12.2048 15.1875 11.7856 15.6072 11.7856 16.125C11.7856 16.6428 12.2048 17.0625 12.722 17.0625Z" fill="#06555C"/>
<path d="M16.8421 17.0625C17.3592 17.0625 17.7784 16.6428 17.7784 16.125C17.7784 15.6072 17.3592 15.1875 16.8421 15.1875C16.325 15.1875 15.9058 15.6072 15.9058 16.125C15.9058 16.6428 16.325 17.0625 16.8421 17.0625Z" fill="#06555C"/>
</g>
<defs>
<clipPath id="clip0_161_1534">
<rect width="23.9697" height="24" fill="white" transform="translate(0.737305)"/>
</clipPath>
</defs>
</svg>
