<svg width="32" height="32" viewBox="0 0 32 32" fill="none" xmlns="http://www.w3.org/2000/svg">
<g clip-path="url(#clip0_492_1258)">
<path d="M29.9998 14.0001C29.9978 12.1441 29.2597 10.3648 27.9473 9.0525C26.635 7.74017 24.8557 7.00204 22.9998 7.00005C22.7785 7.00005 22.5573 7.01255 22.3385 7.03255C21.7741 5.8279 20.8781 4.80903 19.7555 4.09527C18.6329 3.38152 17.3301 3.00244 15.9998 3.00244C14.6695 3.00244 13.3667 3.38152 12.2441 4.09527C11.1214 4.80903 10.2254 5.8279 9.66103 7.03255C9.44228 7.01255 9.22103 7.00005 8.99978 7.00005C7.41075 7.00044 5.86914 7.54145 4.62837 8.53416C3.38759 9.52687 2.52149 10.9122 2.17244 12.4624C1.82339 14.0126 2.01217 15.6355 2.70773 17.0642C3.4033 18.4929 4.56426 19.6424 5.99978 20.3238V26.0001C5.99978 26.5305 6.21049 27.0392 6.58556 27.4143C6.96063 27.7893 7.46934 28.0001 7.99978 28.0001H23.9998C24.5302 28.0001 25.0389 27.7893 25.414 27.4143C25.7891 27.0392 25.9998 26.5305 25.9998 26.0001V20.3238C27.1956 19.7551 28.206 18.8593 28.9139 17.7401C29.6218 16.621 29.9983 15.3243 29.9998 14.0001ZM19.0298 17.7576L20.0298 13.7576C20.0977 13.5043 20.2625 13.2878 20.4885 13.1548C20.7145 13.0218 20.9837 12.9829 21.2382 13.0465C21.4926 13.1101 21.7118 13.2711 21.8487 13.4949C21.9855 13.7186 22.029 13.9871 21.9698 14.2426L20.9698 18.2426C20.9157 18.4589 20.7909 18.6509 20.6151 18.7882C20.4394 18.9254 20.2228 19 19.9998 19.0001C19.9176 18.9999 19.8358 18.9899 19.756 18.9701C19.499 18.9054 19.2782 18.7414 19.142 18.5141C19.0058 18.2867 18.9655 18.0146 19.0298 17.7576ZM14.9998 14.0001C14.9998 13.7348 15.1051 13.4805 15.2927 13.2929C15.4802 13.1054 15.7346 13.0001 15.9998 13.0001C16.265 13.0001 16.5193 13.1054 16.7069 13.2929C16.8944 13.4805 16.9998 13.7348 16.9998 14.0001V18.0001C16.9998 18.2653 16.8944 18.5196 16.7069 18.7072C16.5193 18.8947 16.265 19.0001 15.9998 19.0001C15.7346 19.0001 15.4802 18.8947 15.2927 18.7072C15.1051 18.5196 14.9998 18.2653 14.9998 18.0001V14.0001ZM10.7573 13.0301C11.0145 12.9658 11.2868 13.0063 11.5142 13.1427C11.7415 13.2792 11.9054 13.5003 11.9698 13.7576L12.9698 17.7576C13.0341 18.0148 12.9935 18.2871 12.8571 18.5144C12.7207 18.7418 12.4995 18.9057 12.2423 18.9701C12.1605 18.9904 12.0765 19.0005 11.9923 19.0001C11.7695 18.9997 11.5532 18.925 11.3777 18.7878C11.2022 18.6506 11.0776 18.4587 11.0235 18.2426L10.0235 14.2426C9.9918 14.1147 9.98562 13.9819 10.0054 13.8517C10.0251 13.7216 10.0703 13.5965 10.1385 13.4839C10.2067 13.3712 10.2965 13.2731 10.4026 13.1953C10.5088 13.1174 10.6293 13.0612 10.7573 13.0301ZM23.9998 26.0001H7.99978V20.9276C8.33092 20.9758 8.66513 21 8.99978 21.0001H22.9998C23.3344 21 23.6686 20.9758 23.9998 20.9276V26.0001Z" fill="#E1BD52"/>
</g>
<defs>
<clipPath id="clip0_492_1258">
<rect width="32" height="32" fill="white"/>
</clipPath>
</defs>
</svg>
