<svg width="32" height="32" viewBox="0 0 32 32" fill="none" xmlns="http://www.w3.org/2000/svg">
<g clip-path="url(#clip0_492_1167)">
<path d="M30.0003 14.0001C29.9983 12.1441 29.2601 10.3648 27.9478 9.0525C26.6355 7.74017 24.8562 7.00204 23.0003 7.00005C22.779 7.00005 22.5578 7.01255 22.339 7.03255C21.7746 5.8279 20.8786 4.80903 19.756 4.09527C18.6334 3.38152 17.3306 3.00244 16.0003 3.00244C14.6699 3.00244 13.3672 3.38152 12.2446 4.09527C11.1219 4.80903 10.2259 5.8279 9.66151 7.03255C9.44276 7.01255 9.22151 7.00005 9.00026 7.00005C7.41124 7.00044 5.86963 7.54145 4.62885 8.53416C3.38808 9.52687 2.52198 10.9122 2.17293 12.4624C1.82388 14.0126 2.01265 15.6355 2.70822 17.0642C3.40379 18.4929 4.56475 19.6424 6.00026 20.3238V26.0001C6.00026 26.5305 6.21098 27.0392 6.58605 27.4143C6.96112 27.7893 7.46983 28.0001 8.00026 28.0001H24.0003C24.5307 28.0001 25.0394 27.7893 25.4145 27.4143C25.7895 27.0392 26.0003 26.5305 26.0003 26.0001V20.3238C27.1961 19.7551 28.2065 18.8593 28.9144 17.7401C29.6223 16.621 29.9988 15.3243 30.0003 14.0001ZM19.0303 17.7576L20.0303 13.7576C20.0982 13.5043 20.263 13.2878 20.489 13.1548C20.715 13.0218 20.9842 12.9829 21.2386 13.0465C21.4931 13.1101 21.7123 13.2711 21.8492 13.4949C21.986 13.7186 22.0295 13.9871 21.9703 14.2426L20.9703 18.2426C20.9162 18.4589 20.7914 18.6509 20.6156 18.7882C20.4398 18.9254 20.2233 19 20.0003 19.0001C19.9181 18.9999 19.8363 18.9899 19.7565 18.9701C19.4995 18.9054 19.2787 18.7414 19.1425 18.5141C19.0063 18.2867 18.966 18.0146 19.0303 17.7576ZM15.0003 14.0001C15.0003 13.7348 15.1056 13.4805 15.2932 13.2929C15.4807 13.1054 15.735 13.0001 16.0003 13.0001C16.2655 13.0001 16.5198 13.1054 16.7074 13.2929C16.8949 13.4805 17.0003 13.7348 17.0003 14.0001V18.0001C17.0003 18.2653 16.8949 18.5196 16.7074 18.7072C16.5198 18.8947 16.2655 19.0001 16.0003 19.0001C15.735 19.0001 15.4807 18.8947 15.2932 18.7072C15.1056 18.5196 15.0003 18.2653 15.0003 18.0001V14.0001ZM10.7578 13.0301C11.015 12.9658 11.2873 13.0063 11.5147 13.1427C11.742 13.2792 11.9059 13.5003 11.9703 13.7576L12.9703 17.7576C13.0345 18.0148 12.994 18.2871 12.8576 18.5144C12.7212 18.7418 12.5 18.9057 12.2428 18.9701C12.161 18.9904 12.077 19.0005 11.9928 19.0001C11.77 18.9997 11.5537 18.925 11.3782 18.7878C11.2027 18.6506 11.078 18.4587 11.024 18.2426L10.024 14.2426C9.99229 14.1147 9.98611 13.9819 10.0058 13.8517C10.0256 13.7216 10.0708 13.5965 10.139 13.4839C10.2072 13.3712 10.2969 13.2731 10.4031 13.1953C10.5093 13.1174 10.6298 13.0612 10.7578 13.0301ZM24.0003 26.0001H8.00026V20.9276C8.33141 20.9758 8.66562 21 9.00026 21.0001H23.0003C23.3349 21 23.6691 20.9758 24.0003 20.9276V26.0001Z" fill="#0A6169"/>
</g>
<defs>
<clipPath id="clip0_492_1167">
<rect width="32" height="32" fill="white"/>
</clipPath>
</defs>
</svg>
