<svg width="22" height="22" viewBox="0 0 22 22" fill="none" xmlns="http://www.w3.org/2000/svg">
<path d="M4.10562 17.8944C3.24312 17.0319 3.815 15.2197 3.37625 14.1584C2.92063 13.0625 1.25 12.1719 1.25 11C1.25 9.82812 2.92063 8.9375 3.37625 7.84156C3.815 6.78125 3.24312 4.96812 4.10562 4.10562C4.96812 3.24312 6.78125 3.815 7.84156 3.37625C8.94219 2.92063 9.82812 1.25 11 1.25C12.1719 1.25 13.0625 2.92063 14.1584 3.37625C15.2197 3.815 17.0319 3.24312 17.8944 4.10562C18.7569 4.96812 18.185 6.78031 18.6238 7.84156C19.0794 8.94219 20.75 9.82812 20.75 11C20.75 12.1719 19.0794 13.0625 18.6238 14.1584C18.185 15.2197 18.7569 17.0319 17.8944 17.8944C17.0319 18.7569 15.2197 18.185 14.1584 18.6238C13.0625 19.0794 12.1719 20.75 11 20.75C9.82812 20.75 8.9375 19.0794 7.84156 18.6238C6.78125 18.185 4.96812 18.7569 4.10562 17.8944Z" stroke="black" stroke-width="1.5" stroke-linecap="round" stroke-linejoin="round"/>
</svg>
