<svg width="12" height="17" viewBox="0 0 12 17" fill="none" xmlns="http://www.w3.org/2000/svg">
<path d="M11.9375 6.12537C11.9376 4.96433 11.5972 3.82876 10.9586 2.85914C10.32 1.88951 9.41114 1.1284 8.34445 0.669962C7.27776 0.211524 6.10007 0.0758802 4.95708 0.279815C3.8141 0.483749 2.75599 1.01831 1.91367 1.81736C1.07134 2.61641 0.481765 3.64489 0.217887 4.77553C-0.0459908 5.90618 0.0274081 7.08938 0.429002 8.17875C0.830597 9.26812 1.54276 10.2158 2.47739 10.9047C3.41201 11.5935 4.52808 11.9932 5.6875 12.0543V16.1254C5.6875 16.2082 5.72043 16.2877 5.77903 16.3463C5.83764 16.4049 5.91712 16.4379 6 16.4379C6.08288 16.4379 6.16237 16.4049 6.22097 16.3463C6.27958 16.2877 6.3125 16.2082 6.3125 16.1254V12.0543C7.83036 11.9726 9.25926 11.3125 10.3055 10.2098C11.3517 9.10704 11.9357 7.64542 11.9375 6.12537ZM6 11.4379C4.94929 11.4379 3.92217 11.1263 3.04853 10.5425C2.1749 9.9588 1.49398 9.1291 1.09189 8.15837C0.689801 7.18764 0.584596 6.11947 0.78958 5.08895C0.994564 4.05843 1.50053 3.11183 2.2435 2.36886C2.98646 1.6259 3.93306 1.11993 4.96358 0.914946C5.99411 0.709962 7.06228 0.815167 8.03301 1.21726C9.00374 1.61935 9.83344 2.30026 10.4172 3.1739C11.0009 4.04754 11.3125 5.07465 11.3125 6.12537C11.3111 7.53388 10.7509 8.8843 9.75491 9.88027C8.75893 10.8762 7.40852 11.4364 6 11.4379Z" fill="black"/>
</svg>
