<svg width="20" height="20" viewBox="0 0 20 20" fill="none" xmlns="http://www.w3.org/2000/svg">
<mask id="mask0_277_14462" style="mask-type:alpha" maskUnits="userSpaceOnUse" x="0" y="0" width="20" height="20">
<rect width="20" height="20" fill="#D9D9D9"/>
</mask>
<g mask="url(#mask0_277_14462)">
<path d="M3.74792 16.2499V6.33326L2.20312 2.9518L3.33437 2.41992L5.11646 6.29159H14.8794L16.6615 2.41992L17.7927 2.9518L16.2479 6.33326V16.2499H3.74792ZM8.33125 10.6249H11.6646C11.8417 10.6249 11.9901 10.565 12.1098 10.4451C12.2297 10.3253 12.2896 10.1768 12.2896 9.99971C12.2896 9.82249 12.2297 9.67409 12.1098 9.55451C11.9901 9.43478 11.8417 9.37492 11.6646 9.37492H8.33125C8.15417 9.37492 8.00576 9.43485 7.88604 9.55472C7.76618 9.67458 7.70625 9.82305 7.70625 10.0001C7.70625 10.1774 7.76618 10.3258 7.88604 10.4453C8.00576 10.5651 8.15417 10.6249 8.33125 10.6249ZM4.99792 14.9999H14.9979V7.54159H4.99792V14.9999Z" fill="#0A6169"/>
</g>
</svg>
